# xmcd CD database file
#
# Track frame offsets:
#	150
#	14857
#	28421
#	43808
#	57429
#	70790
#	83872
#	95602
#	107687
#	120351
#	135055
#	148302
#	160499
#	173216
#	186811
#	200628
#	213970
#	228130
#	240965
#	253066
#	264767
#
# Disc length: 3691 seconds
#
# Revision: 0
# Processed by: cddbd v1.5.2PL0 Copyright (c) Steve Scherf et al.
# Submitted via: CDex 1.51
#
DISCID=290e6915
DTITLE=Louis Armstrong - Chimes blues  (1923-1924) Cd 03
DYEAR=2004
DGENRE=Jazz
TTITLE0=Clarence Williams' Blue Five   -  Texas Moaner Blues
TTITLE1=rginia Liston  W. Clarence Williams' Blue Five   -  Early In The Morning
TTITLE2=Virginia Liston  W. Clarence Williams' Blue Five   - You've Got The Right Key But The Wrong Keyhole
TTITLE3=Fletcher Henderson and His Orchestra*  -  Words
TTITLE4=Fletcher Henderson and His Orchestra*  -   Copenhagen
TTITLE5=Clarence Williams' Blue Five   -   Of All The Wrongs You Done To Me
TTITLE6=Clarence Williams' Blue Five   -   Everybody Loves My Baby
TTITLE7=	 Josephine Beatty  and  Red Onion Jazz Babies, The   -  Everybody Loves My Baby
TTITLE8=Fletcher Henderson and His Orchestra*  -  Shanghai Shuffle
TTITLE9=Fletcher Henderson and His Orchestra*  -   Naughty Man
TTITLE10=Josephine Beatty  and  Red Onion Jazz Babies, The   -  Texas Moaner Blues
TTITLE11=Josephine Beatty  and  Red Onion Jazz Babies, The   -  Of All The Wrongs You've Done To Me
TTITLE12=Fletcher Henderson and His Orchestra*  -  One Of These Days
TTITLE13=Fletcher Henderson and His Orchestra*  -  My Dream Man
TTITLE14=Fletcher Henderson and His Orchestra*  -   The Meanest Kind Of Blues
TTITLE15=Fletcher Henderson and His Orchestra*  -  Naughty Man
TTITLE16=Fletcher Henderson and His Orchestra*  -  How Come You Do Me Like You Do? (Take 1)  	3:0
TTITLE17=Fletcher Henderson and His Orchestra*  -  How Come You Do Me Like You Do? (Excerpt Take 2)
TTITLE18=	 Margaret Johnson  and  Clarence Williams' Blue Five   -   Changeable Daddy Of 
TTITLE19=Margaret Johnson  and  Clarence Williams' Blue Five   -   Papa, Mama's All Alone Blues
TTITLE20=	 Margaret Johnson  and  Clarence Williams' Blue Five   -   	Changeable Daddy Of 
EXTD=YEAR: 2004
EXTT0=
EXTT1=
EXTT2=
EXTT3=
EXTT4=
EXTT5=
EXTT6=
EXTT7=
EXTT8=
EXTT9=
EXTT10=
EXTT11=
EXTT12=
EXTT13=
EXTT14=
EXTT15=
EXTT16=
EXTT17=
EXTT18=
EXTT19=
EXTT20=
PLAYORDER=
